<svg width="800" height="600" viewBox="0 0 800 600" xmlns="http://www.w3.org/2000/svg" xmlns:xlink="http://www.w3.org/1999/xlink" data-cache="1766912646532">
<style>
path.line-0 {
  stroke-dasharray: 193 198;
  stroke-dashoffset: 193;
  animation: draw-0 4637.881106269171ms ease forwards infinite;
}
@keyframes draw-0 {
  0% { stroke-dashoffset: 193; }
  8.34% { stroke-dashoffset: 0; }
  96.78% { stroke-dashoffset: 0; }
  98.11% { stroke-dashoffset: 193; }
  100% { stroke-dashoffset: 193; }
}
path.line-1 {
  stroke-dasharray: 113 118;
  stroke-dashoffset: 113;
  animation: draw-1 4637.881106269171ms ease forwards infinite;
}
@keyframes draw-1 {
  0% { stroke-dashoffset: 113; }
  8.337717576493953% { stroke-dashoffset: 113; }
  13.22% { stroke-dashoffset: 0; }
  96.16% { stroke-dashoffset: 0; }
  96.94% { stroke-dashoffset: 113; }
  100% { stroke-dashoffset: 113; }
}
path.line-2 {
  stroke-dasharray: 163 168;
  stroke-dashoffset: 163;
  animation: draw-2 4637.881106269171ms ease forwards infinite;
}
@keyframes draw-2 {
  0% { stroke-dashoffset: 163; }
  13.22473275054131% { stroke-dashoffset: 163; }
  20.25% { stroke-dashoffset: 0; }
  95.26% { stroke-dashoffset: 0; }
  96.38% { stroke-dashoffset: 163; }
  100% { stroke-dashoffset: 163; }
}
path.line-3 {
  stroke-dasharray: 260 265;
  stroke-dashoffset: 260;
  animation: draw-3 4637.881106269171ms ease forwards infinite;
}
@keyframes draw-3 {
  0% { stroke-dashoffset: 260; }
  20.24694253448969% { stroke-dashoffset: 260; }
  31.48% { stroke-dashoffset: 0; }
  93.83% { stroke-dashoffset: 0; }
  95.62% { stroke-dashoffset: 260; }
  100% { stroke-dashoffset: 260; }
}
path.line-4 {
  stroke-dasharray: 170 175;
  stroke-dashoffset: 170;
  animation: draw-4 4637.881106269171ms ease forwards infinite;
}
@keyframes draw-4 {
  0% { stroke-dashoffset: 170; }
  31.47754287425203% { stroke-dashoffset: 170; }
  38.80% { stroke-dashoffset: 0; }
  92.90% { stroke-dashoffset: 0; }
  94.06% { stroke-dashoffset: 170; }
  100% { stroke-dashoffset: 170; }
}
path.line-5 {
  stroke-dasharray: 283 288;
  stroke-dashoffset: 283;
  animation: draw-5 4637.881106269171ms ease forwards infinite;
}
@keyframes draw-5 {
  0% { stroke-dashoffset: 283; }
  38.80069967808703% { stroke-dashoffset: 283; }
  50.99% { stroke-dashoffset: 0; }
  91.34% { stroke-dashoffset: 0; }
  93.29% { stroke-dashoffset: 283; }
  100% { stroke-dashoffset: 283; }
}
path.line-6 {
  stroke-dasharray: 207 212;
  stroke-dashoffset: 207;
  animation: draw-6 4637.881106269171ms ease forwards infinite;
}
@keyframes draw-6 {
  0% { stroke-dashoffset: 207; }
  50.99138512040121% { stroke-dashoffset: 207; }
  59.92% { stroke-dashoffset: 0; }
  90.21% { stroke-dashoffset: 0; }
  91.63% { stroke-dashoffset: 207; }
  100% { stroke-dashoffset: 207; }
}
path.line-7 {
  stroke-dasharray: 179 184;
  stroke-dashoffset: 179;
  animation: draw-7 4637.881106269171ms ease forwards infinite;
}
@keyframes draw-7 {
  0% { stroke-dashoffset: 179; }
  59.91944964014533% { stroke-dashoffset: 179; }
  67.66% { stroke-dashoffset: 0; }
  89.22% { stroke-dashoffset: 0; }
  90.45% { stroke-dashoffset: 179; }
  100% { stroke-dashoffset: 179; }
}
</style><g mask="url(#brush)">
<path d="M234.5,214.5L233.667,215.833C232.833,217.167,231.167,219.833,229.333,223.667C227.5,227.5,225.5,232.5,222.833,239.5C220.167,246.5,216.833,255.5,213.5,264.667C210.167,273.833,206.833,283.167,203.333,292.333C199.833,301.5,196.167,310.5,192.5,319.333C188.833,328.167,185.167,336.833,182.167,344.5C179.167,352.167,176.833,358.833,175.5,363.833C174.167,368.833,173.833,372.167,174.667,373.167C175.5,374.167,177.5,372.833,179,371.333C180.5,369.833,181.5,368.167,182,367.333L182.5,366.5" stroke-width="12.021739130434781" stroke-linecap="round" stroke-linejoin="round" stroke="#000" fill="none" class="line-0">

</path><path d="M233.5,285.5L232.167,286.333C230.833,287.167,228.167,288.833,225.167,291C222.167,293.167,218.833,295.833,215,298.667C211.167,301.5,206.833,304.5,203.167,307.167C199.5,309.833,196.5,312.167,194.667,314.333C192.833,316.5,192.167,318.5,192.333,320.167C192.5,321.833,193.5,323.167,195.167,325.167C196.833,327.167,199.167,329.833,201.833,332.833C204.5,335.833,207.5,339.167,210.5,342.5C213.5,345.833,216.5,349.167,218.833,351.833C221.167,354.5,222.833,356.5,224.333,357.833C225.833,359.167,227.167,359.833,227.833,360.167L228.5,360.5" stroke-width="12.021739130434781" stroke-linecap="round" stroke-linejoin="round" stroke="#000" fill="none" class="line-1">

</path><path d="M249.5,314.5L248.5,315.667C247.5,316.833,245.5,319.167,244,321.667C242.5,324.167,241.5,326.833,240.833,329.833C240.167,332.833,239.833,336.167,239.833,339.667C239.833,343.167,240.167,346.833,240.833,349.833C241.5,352.833,242.5,355.167,243.833,356.667C245.167,358.167,246.833,358.833,248.833,359C250.833,359.167,253.167,358.833,255.5,358.167C257.833,357.5,260.167,356.5,262.167,355C264.167,353.5,265.833,351.5,267.5,349C269.167,346.5,270.833,343.5,272.333,340.167C273.833,336.833,275.167,333.167,276.167,329.667C277.167,326.167,277.833,322.833,278,320.333C278.167,317.833,277.833,316.167,276.833,314.667C275.833,313.167,274.167,311.833,272,310.667C269.833,309.5,267.167,308.5,264.667,308C262.167,307.5,259.833,307.5,257.333,308.333C254.833,309.167,252.167,310.833,250,313.167C247.833,315.5,246.167,318.5,244.833,321.5C243.5,324.5,242.5,327.5,242,329L241.5,330.5" stroke-width="12.021739130434781" stroke-linecap="round" stroke-linejoin="round" stroke="#000" fill="none" class="line-2">

</path><path d="M306.5,312.5L306,315.333C305.5,318.167,304.5,323.833,303.167,329.667C301.833,335.5,300.167,341.5,298.5,346.5C296.833,351.5,295.167,355.5,293.833,358.167C292.5,360.833,291.5,362.167,291.5,362C291.5,361.833,292.5,360.167,294,357.833C295.5,355.5,297.5,352.5,299.667,349.167C301.833,345.833,304.167,342.167,306.833,338.5C309.5,334.833,312.5,331.167,315.5,327.5C318.5,323.833,321.5,320.167,324.667,317C327.833,313.833,331.167,311.167,333.833,309.333C336.5,307.5,338.5,306.5,339.833,307C341.167,307.5,341.833,309.5,341.5,311.667C341.167,313.833,339.833,316.167,338.667,318.667C337.5,321.167,336.5,323.833,335.5,326.833C334.5,329.833,333.5,333.167,332.333,337.167C331.167,341.167,329.833,345.833,328.833,350.167C327.833,354.5,327.167,358.5,328,360.333C328.833,362.167,331.167,361.833,334,360.333C336.833,358.833,340.167,356.167,343.833,353.167C347.5,350.167,351.5,346.833,355.5,343.833C359.5,340.833,363.5,338.167,367.5,335.333C371.5,332.5,375.5,329.5,377.5,328L379.5,326.5" stroke-width="12.021739130434781" stroke-linecap="round" stroke-linejoin="round" stroke="#000" fill="none" class="line-3">

</path><path d="M406.5,299.5L405.5,299C404.5,298.5,402.5,297.5,400.5,297.5C398.5,297.5,396.5,298.5,394.5,300C392.5,301.5,390.5,303.5,388.333,306C386.167,308.5,383.833,311.5,381.5,315.5C379.167,319.5,376.833,324.5,374.667,330.167C372.5,335.833,370.5,342.167,369.333,347.167C368.167,352.167,367.833,355.833,368.333,358.333C368.833,360.833,370.167,362.167,372,362.5C373.833,362.833,376.167,362.167,379.167,360.333C382.167,358.5,385.833,355.5,389.833,351.5C393.833,347.5,398.167,342.5,402.333,337.5C406.5,332.5,410.5,327.5,414.333,322.667C418.167,317.833,421.833,313.167,424,310.333C426.167,307.5,426.833,306.5,427.167,306L427.5,305.5" stroke-width="12.021739130434781" stroke-linecap="round" stroke-linejoin="round" stroke="#000" fill="none" class="line-4">

</path><path d="M446.5,245.5L446.667,244.667C446.833,243.833,447.167,242.167,447.167,242.167C447.167,242.167,446.833,243.833,446.5,245.667C446.167,247.5,445.833,249.5,445.167,251.833C444.5,254.167,443.5,256.833,442.167,260.667C440.833,264.5,439.167,269.5,437.333,275.333C435.5,281.167,433.5,287.833,431.5,294C429.5,300.167,427.5,305.833,425.5,312C423.5,318.167,421.5,324.833,419.5,331C417.5,337.167,415.5,342.833,414,347.167C412.5,351.5,411.5,354.5,412.333,353.5C413.167,352.5,415.833,347.5,418.5,343C421.167,338.5,423.833,334.5,426.5,330.5C429.167,326.5,431.833,322.5,434.667,318.833C437.5,315.167,440.5,311.833,443.5,309.333C446.5,306.833,449.5,305.167,452,303.833C454.5,302.5,456.5,301.5,458.333,301.167C460.167,300.833,461.833,301.167,462.5,302.333C463.167,303.5,462.833,305.5,462.333,307.667C461.833,309.833,461.167,312.167,460.333,314.833C459.5,317.5,458.5,320.5,457.667,323.667C456.833,326.833,456.167,330.167,455.167,334.167C454.167,338.167,452.833,342.833,452,347.333C451.167,351.833,450.833,356.167,451,358.333C451.167,360.5,451.833,360.5,452.167,360.5L452.5,360.5" stroke-width="12.021739130434781" stroke-linecap="round" stroke-linejoin="round" stroke="#000" fill="none" class="line-5">

</path><path d="M521.5,309.5L520.5,308.833C519.5,308.167,517.5,306.833,514.833,306.167C512.167,305.5,508.833,305.5,505.833,306.5C502.833,307.5,500.167,309.5,497.5,312.5C494.833,315.5,492.167,319.5,489.833,323.833C487.5,328.167,485.5,332.833,484.167,337C482.833,341.167,482.167,344.833,482.167,347.5C482.167,350.167,482.833,351.833,484,352.833C485.167,353.833,486.833,354.167,489,353.833C491.167,353.5,493.833,352.5,496.5,350.667C499.167,348.833,501.833,346.167,504.5,343.167C507.167,340.167,509.833,336.833,512.333,333.667C514.833,330.5,517.167,327.5,519.333,324.5C521.5,321.5,523.5,318.5,524.667,316C525.833,313.5,526.167,311.5,525.333,310.667C524.5,309.833,522.5,310.167,521,311.5C519.5,312.833,518.5,315.167,517.833,317.5C517.167,319.833,516.833,322.167,516.5,325C516.167,327.833,515.833,331.167,515.667,334.667C515.5,338.167,515.5,341.833,515.833,345.167C516.167,348.5,516.833,351.5,518.167,353.333C519.5,355.167,521.5,355.833,523.167,355.333C524.833,354.833,526.167,353.167,527.167,352C528.167,350.833,528.833,350.167,529.167,349.833L529.5,349.5" stroke-width="12.021739130434781" stroke-linecap="round" stroke-linejoin="round" stroke="#000" fill="none" class="line-6">

</path><path d="M550.5,309.5L550.167,311.167C549.833,312.833,549.167,316.167,548.167,320.333C547.167,324.5,545.833,329.5,544.333,334.167C542.833,338.833,541.167,343.167,540,346.167C538.833,349.167,538.167,350.833,538.5,350.667C538.833,350.5,540.167,348.5,541.667,346.333C543.167,344.167,544.833,341.833,546.833,339.333C548.833,336.833,551.167,334.167,553.667,331.167C556.167,328.167,558.833,324.833,561.833,321.667C564.833,318.5,568.167,315.5,571.167,312.833C574.167,310.167,576.833,307.833,579.167,306.333C581.5,304.833,583.5,304.167,585.5,304.167C587.5,304.167,589.5,304.833,590.833,306.833C592.167,308.833,592.833,312.167,592.833,315.667C592.833,319.167,592.167,322.833,591.167,326.833C590.167,330.833,588.833,335.167,587.5,338.833C586.167,342.5,584.833,345.5,583.833,348C582.833,350.5,582.167,352.5,581.833,353.833C581.5,355.167,581.5,355.833,581.5,356.167L581.5,356.5" stroke-width="12.021739130434781" stroke-linecap="round" stroke-linejoin="round" stroke="#000" fill="none" class="line-7">

</path>
</g><mask id="brush">
<rect x="0" y="0" width="100%" height="100%" fill="black">

</rect><path d="M234.51,214.51L230.36,223.04L225.28,238.21L216.22,265.51L206.50,293.57L195.35,320.66L184.03,346.57L176.42,366.16L175.09,375.66L173.50,376.97L174.43,377.02L175.76,376.39L178.83,371.17L182.49,366.49L182.50,366.50L182.51,366.51L180.17,371.83L177.24,378.61L174.57,379.98L173.50,380.03L171.91,375.34L172.58,364.84L178.97,344.43L189.65,318.34L200.50,291.43L210.78,263.49L221.72,236.79L228.64,221.96L234.49,214.49Z" fill="white">

</path><path d="M233.51,285.51L226.28,291.75L216.82,300.15L204.02,309.69L195.40,316.74L194.57,319.86L197.61,322.17L204.05,330.27L212.32,340.86L220.50,351.60L225.01,358.07L228.51,360.49L228.51,360.50L228.51,360.50L228.51,360.50L228.51,360.50L228.51,360.50L228.51,360.51L228.51,360.51L228.50,360.51L228.50,360.51L228.50,360.51L228.50,360.51L228.49,360.51L228.49,360.51L228.50,360.50L228.51,360.49L228.51,360.50L228.51,360.50L228.51,360.50L228.51,360.50L228.51,360.50L228.51,360.51L228.51,360.51L228.50,360.51L228.50,360.51L228.50,360.51L228.50,360.51L228.49,360.51L228.49,360.51L223.99,358.93L218.50,353.40L208.68,344.14L198.95,334.73L191.39,326.83L188.02,320.94L188.43,317.14L191.60,312.26L200.98,305.31L214.18,296.85L224.72,289.25L233.49,285.49Z" fill="white">

</path><path d="M249.51,314.51L244.56,322.37L242.44,330.21L242.16,339.76L243.56,350.17L246.20,355.54L249.70,355.78L254.85,354.22L260.50,351.41L263.82,346.45L268.50,338.29L272.66,328.11L274.72,318.86L273.91,315.83L270.06,313.64L263.31,310.89L257.76,310.70L250.89,314.45L245.60,322.10L241.51,330.50L241.50,330.50L241.49,330.50L243.40,320.90L248.11,310.55L257.24,304.30L265.69,304.11L274.94,307.36L281.09,313.17L282.28,320.14L280.34,330.89L276.50,342.71L271.18,352.55L264.50,359.59L256.15,362.78L247.30,363.22L240.80,359.46L237.44,350.83L236.84,339.24L238.56,328.79L242.44,320.63L249.49,314.49Z" fill="white">

</path><path d="M306.51,312.50L305.01,329.77L300.76,348.13L295.96,360.55L293.41,364.71L293.03,365.37L292.51,365.92L291.87,366.34L291.15,366.58L290.40,366.65L289.65,366.53L288.95,366.24L288.34,365.79L287.85,365.20L287.52,364.52L287.36,363.78L287.39,363.02L287.59,362.29L290.78,356.46L296.55,347.54L303.63,336.67L312.99,325.44L322.09,314.51L332.61,306.11L340.19,302.42L345.27,305.03L346.44,311.76L342.13,320.56L339.50,328.00L336.45,337.69L332.12,351.53L329.84,362.66L325.87,361.23L331.76,358.07L341.48,350.97L353.96,341.65L366.73,334.35L379.49,326.49L379.50,326.50L379.51,326.51L368.27,336.65L357.04,345.35L345.52,356.03L335.24,364.93L329.13,367.77L323.16,362.34L324.88,349.47L328.55,335.31L331.50,325.00L334.87,316.44L338.56,311.24L339.73,307.97L340.81,308.58L336.39,310.89L326.91,318.49L318.01,329.56L309.37,340.33L302.45,351.46L296.22,360.54L293.33,362.85L293.41,364.71L293.03,365.37L292.51,365.92L291.87,366.34L291.15,366.58L290.40,366.65L289.65,366.53L288.95,366.24L288.34,365.79L287.85,365.21L287.52,364.52L287.36,363.78L287.39,363.02L287.59,362.29L291.04,358.45L296.24,346.87L301.99,329.23L306.49,312.50Z" fill="white">

</path><path d="M406.50,299.51L394.80,300.83L389.96,306.95L383.50,316.04L377.17,330.74L371.53,349.44L370.41,358.86L372.24,360.45L377.31,357.80L387.28,349.80L400.35,335.64L413.09,321.37L425.22,308.28L427.49,305.49L427.50,305.50L427.51,305.51L425.78,308.72L415.91,323.63L404.65,339.36L391.72,355.20L379.69,365.20L370.76,366.55L364.59,360.14L365.47,347.56L371.83,328.26L379.50,312.96L387.04,304.05L394.20,298.17L406.50,299.49Z" fill="white">

</path><path d="M446.51,245.50L446.86,251.73L444.40,260.21L440.06,275.35L434.57,295.42L428.63,312.60L422.58,332.42L416.43,349.53L413.66,358.56L412.89,360.63L412.52,361.41L411.98,362.08L411.29,362.59L410.50,362.93L409.65,363.07L408.79,363.00L407.97,362.73L407.24,362.27L406.64,361.65L406.21,360.90L405.97,360.07L405.94,359.21L406.11,358.37L409.23,351.54L415.39,340.80L423.72,328.65L431.84,316.72L441.24,306.39L450.92,300.66L456.91,297.28L465.02,297.32L467.22,300.15L466.70,308.20L464.60,315.67L461.19,324.73L458.72,334.15L453.47,348.05L451.24,360.56L450.95,363.53L450.93,363.64L450.88,363.74L450.82,363.83L450.73,363.89L450.63,363.94L450.52,363.95L450.41,363.94L450.31,363.91L450.21,363.85L450.14,363.77L450.08,363.68L450.05,363.57L450.05,363.47L452.49,360.50L452.50,360.50L452.51,360.50L450.95,363.53L450.93,363.64L450.88,363.74L450.82,363.83L450.73,363.89L450.63,363.94L450.52,363.95L450.41,363.94L450.31,363.91L450.21,363.85L450.14,363.77L450.08,363.68L450.05,363.57L450.05,363.47L449.76,360.44L449.53,346.95L452.28,332.85L453.81,322.27L456.40,313.33L458.30,306.80L459.78,302.85L459.98,301.68L460.09,303.72L454.08,306.34L445.76,310.61L437.16,320.28L429.28,332.35L421.61,344.20L415.77,355.46L412.89,358.75L412.89,360.63L412.52,361.41L411.98,362.08L411.29,362.59L410.50,362.93L409.65,363.07L408.79,363.00L407.97,362.73L407.24,362.27L406.64,361.65L406.21,360.90L405.97,360.08L405.94,359.21L406.11,358.37L407.34,356.44L410.57,347.47L416.42,330.58L422.37,310.40L428.43,293.58L434.94,273.65L440.60,258.79L444.14,251.27L446.49,245.50Z" fill="white">

</path><path d="M521.49,309.51L514.73,306.70L511.11,306.30L506.02,307.83L499.33,313.85L492.30,325.35L486.74,338.87L484.99,348.84L485.86,350.93L488.99,350.33L494.83,347.51L501.63,340.63L509.60,331.18L516.68,322.31L522.52,313.67L523.32,307.38L523.92,306.68L524.67,306.15L525.53,305.81L526.44,305.68L527.35,305.78L528.22,306.09L528.99,306.60L529.61,307.28L530.05,308.09L530.28,308.98L530.30,309.90L530.09,310.80L529.68,311.62L525.50,313.09L522.68,313.29L522.49,313.90L522.02,315.75L521.70,318.55L520.68,325.10L519.07,334.85L518.16,345.49L519.12,353.77L521.24,355.12L523.12,355.37L529.49,349.49L529.50,349.50L529.51,349.51L523.88,357.63L519.76,357.88L515.88,355.23L512.84,345.51L511.93,334.15L512.32,323.90L513.30,316.45L514.98,311.25L518.51,307.10L522.32,305.71L525.50,305.91L523.32,307.38L523.92,306.68L524.67,306.15L525.53,305.81L526.44,305.68L527.35,305.78L528.22,306.09L528.99,306.60L529.61,307.28L530.05,308.09L530.28,308.98L530.30,309.90L530.09,310.80L529.68,311.62L528.48,317.33L522.32,326.69L515.40,335.82L507.37,346.37L498.17,355.49L488.01,358.67L481.14,356.07L478.01,348.16L480.26,336.13L486.70,321.65L495.67,309.15L504.98,303.17L511.89,302.70L516.27,304.30L521.51,309.49Z" fill="white">

</path><path d="M550.51,309.50L549.63,319.73L546.45,335.02L541.85,348.41L540.31,353.58L539.97,354.22L539.48,354.76L538.88,355.17L538.21,355.42L537.49,355.51L536.77,355.41L536.09,355.15L535.50,354.74L535.02,354.20L534.68,353.55L534.51,352.85L534.52,352.12L534.69,351.42L534.79,349.89L539.07,344.08L543.41,337.29L550.58,328.95L558.65,319.21L569.21,309.95L577.34,302.88L584.39,299.99L588.86,299.72L593.94,302.32L597.30,307.82L597.66,315.51L594.74,327.09L589.47,340.11L584.55,348.97L581.93,354.67L581.51,356.50L581.51,356.51L581.51,356.51L581.51,356.51L581.50,356.51L581.50,356.51L581.50,356.51L581.50,356.51L581.49,356.51L581.49,356.51L581.49,356.50L581.49,356.50L581.49,356.50L581.49,356.50L581.50,356.50L581.51,356.50L581.51,356.51L581.51,356.51L581.51,356.51L581.50,356.51L581.50,356.51L581.50,356.51L581.50,356.51L581.49,356.51L581.49,356.51L581.49,356.50L581.49,356.50L581.49,356.50L581.49,356.50L581.07,354.33L582.45,348.03L585.53,338.89L588.26,325.91L589.34,315.49L589.70,311.18L589.06,308.68L588.14,307.28L586.61,307.01L581.66,308.12L573.79,315.05L564.35,323.79L556.42,334.05L549.59,341.71L543.93,348.92L540.21,351.11L540.31,353.58L539.97,354.22L539.48,354.76L538.88,355.17L538.21,355.42L537.49,355.51L536.77,355.41L536.09,355.15L535.50,354.74L535.02,354.20L534.68,353.55L534.51,352.85L534.52,352.12L534.69,351.42L537.15,346.59L542.55,333.98L547.37,319.27L550.49,309.50Z" fill="white">

</path>
</mask>
</svg>